<?xml version="1.0" encoding="UTF-8" standalone="no"?>
<svg
   xmlns:dc="http://purl.org/dc/elements/1.1/"
   xmlns:cc="http://creativecommons.org/ns#"
   xmlns:rdf="http://www.w3.org/1999/02/22-rdf-syntax-ns#"
   xmlns:svg="http://www.w3.org/2000/svg"
   xmlns="http://www.w3.org/2000/svg"
   xmlns:sodipodi="http://sodipodi.sourceforge.net/DTD/sodipodi-0.dtd"
   xmlns:inkscape="http://www.inkscape.org/namespaces/inkscape"
   sodipodi:docname="seedbank.svg"
   inkscape:version="1.0 (6e3e5246a0, 2020-05-07)"
   id="svg8"
   version="1.1"
   viewBox="0 0 210 210"
   height="210mm"
   width="210mm">
  <defs
     id="defs2" />
  <sodipodi:namedview
     inkscape:window-maximized="0"
     inkscape:window-y="125"
     inkscape:window-x="212"
     inkscape:window-height="918"
     inkscape:window-width="1428"
     showgrid="false"
     inkscape:document-rotation="0"
     inkscape:current-layer="layer1"
     inkscape:document-units="mm"
     inkscape:cy="444.96961"
     inkscape:cx="176.67448"
     inkscape:zoom="0.35"
     inkscape:pageshadow="2"
     inkscape:pageopacity="0.0"
     borderopacity="1.0"
     bordercolor="#666666"
     pagecolor="#ffffff"
     id="base" />
  <metadata
     id="metadata5">
    <rdf:RDF>
      <cc:Work
         rdf:about="">
        <dc:format>image/svg+xml</dc:format>
        <dc:type
           rdf:resource="http://purl.org/dc/dcmitype/StillImage" />
        <dc:title></dc:title>
      </cc:Work>
    </rdf:RDF>
  </metadata>
  <g
     id="layer1"
     inkscape:groupmode="layer"
     inkscape:label="Layer 1">
    <g
       transform="matrix(1.0953574,0,0,1.1127887,333.16546,117.3055)"
       id="g159">
      <g
         id="g124"
         transform="matrix(0.38677639,0,0,0.37029695,-301.18066,-100.14912)">
        <g
           id="g61">
	<g
   id="g59">
		<path
   id="path57"
   d="m 472.032,176.017 c 4.418,0 8,-3.582 8,-8 v -32 c 0,-0.104 -0.056,-0.184 -0.056,-0.288 -0.031,-0.874 -0.206,-1.736 -0.52,-2.552 0,-0.096 0,-0.208 -0.072,-0.304 -0.389,-0.873 -0.93,-1.67 -1.6,-2.352 -0.237,-0.21 -0.486,-0.408 -0.744,-0.592 -0.358,-0.339 -0.746,-0.644 -1.16,-0.912 l -232,-128 c -2.403,-1.336 -5.325,-1.336 -7.728,0 l -232,128 c -0.414,0.268 -0.802,0.573 -1.16,0.912 -0.258,0.184 -0.507,0.382 -0.744,0.592 -0.67,0.682 -1.211,1.479 -1.6,2.352 0,0.096 0,0.208 -0.072,0.304 -0.314,0.816 -0.489,1.678 -0.52,2.552 0,0.104 -0.056,0.184 -0.056,0.288 v 32 c 0,4.418 3.582,8 8,8 h 24.032 v 240 h -24 c -4.418,0 -8,3.582 -8,8 v 48 c 0,4.418 3.582,8 8,8 h 464 c 4.418,0 8,-3.582 8,-8 v -48 c 0,-4.418 -3.582,-8 -8,-8 h -24 v -240 z m -232,-158.864 200.936,110.864 H 39.096 Z m 224,414.864 v 32 h -448 v -32 z m -416,-16 v -240 h 32 v 240 z m 48,0 v -240 h 288 v 240 z m 304,0 v -240 h 32 v 240 z m -384,-256 v -16 h 448 v 16 z" />

	</g>

</g>
        <g
           id="g63">
</g>
        <g
           id="g65">
</g>
        <g
           id="g67">
</g>
        <g
           id="g69">
</g>
        <g
           id="g71">
</g>
        <g
           id="g73">
</g>
        <g
           id="g75">
</g>
        <g
           id="g77">
</g>
        <g
           id="g79">
</g>
        <g
           id="g81">
</g>
        <g
           id="g83">
</g>
        <g
           id="g85">
</g>
        <g
           id="g87">
</g>
        <g
           id="g89">
</g>
        <g
           id="g91">
</g>
      </g>
      <path
         d="m -177.52976,-5.9810173 -1.63411,-8.1674797 -4.55002,1.82148 c -3.9922,1.59807 -8.24994,3.0950397 -12.68451,4.4603897 -1.95861,-5.3305097 -4.9179,-10.6284897 -8.81679,-15.7795597 l -5.02676,-6.64148 -3.30334,3.62065 c -5.2653,5.77137 -11.20709,11.38148 -18.16482,17.1508597 -5.49131,4.55338 -9.37905,10.91557 -10.94718,17.91469 -1.61655,7.2156503 -0.76597,14.5557703 2.45994,21.2264203 l 8.83617,18.27156 h 9.66476 c 8.44845,0 15.92172,-1.29555 22.21183,-3.85093 5.96377,-2.42284 10.89907,-5.98287 14.66893,-10.5813 7.86725,-9.59711 10.45469,-23.6057303 7.2859,-39.4453003 z m -7.799,-0.81271 c -3.0138,6.07358 -6.78365,12.09951 -11.2558,17.9741003 -4.59705,6.03845 -9.93779,11.93076 -15.87392,17.51338 -6.19177,5.82313 -11.75958,10.09905 -15.17545,12.55792 v -14.50508 c 0,-6.36508 2.08642,-12.35848 6.03386,-17.3322603 3.8317,-4.82811 9.21687,-8.29483 15.16354,-9.76173 2.4123,-0.59509 4.78321,-1.2218 7.07624,-1.86958 l 0.004,0.0124 2.09421,-0.6174 c 0.0198,-0.006 0.0399,-0.0116 0.0597,-0.0174 v -1.5e-4 c 4.11006,-1.21218 8.08759,-2.53873 11.87363,-3.95417 z m -52.85822,16.19385 c 1.34748,-6.01478 4.68624,-11.48027 9.40103,-15.38969 6.94339,-5.7574697 12.90762,-11.3701797 18.21491,-17.1419997 l 1.70313,2.25012 c 3.5556,4.69769 6.26003,9.50181 8.06287,14.3118997 -2.18186,0.61403 -4.43565,1.20866 -6.72883,1.77429 -6.92583,1.70847 -13.19577,5.74357 -17.65463,11.36178 -4.59691,5.7922803 -7.02661,12.7703303 -7.02661,20.1802303 v 8.86167 l -3.85811,-7.97781 c -2.77116,-5.73014 -3.50201,-12.03414 -2.11376,-18.2304903 z m 49.82823,21.1600003 c -3.27951,4.00044 -7.60276,7.10968 -12.85005,9.2413 -5.74006,2.33182 -12.63305,3.51407 -20.48762,3.51407 h -1.00007 c 3.46183,-2.6015 8.14136,-6.36768 13.29594,-11.20861 6.13404,-5.76083 11.65849,-11.84968 16.41986,-18.09749 4.40525,-5.7805203 8.16197,-11.7117703 11.22128,-17.7028803 2.48208,13.8887603 0.15728,26.0114603 -6.59934,34.2536103 z"
         id="path126"
         style="stroke-width:0.152706" />
    </g>
  </g>
</svg>
